<svg xmlns="http://www.w3.org/2000/svg" width="174" height="50" viewBox="0 0 174 50"><g fill="none" fill-rule="evenodd"><g fill="#FFF" fill-rule="nonzero" transform="translate(42.468 8.682)"><path d="M11.505,3.939 C11.4096667,4.12966667 11.2991667,4.264 11.1735,4.342 C11.0478333,4.42 10.8983333,4.459 10.725,4.459 C10.5516667,4.459 10.3566667,4.39183333 10.14,4.2575 C9.92333333,4.12316667 9.66766667,3.97366667 9.373,3.809 C9.07833333,3.64433333 8.73383333,3.49483333 8.3395,3.3605 C7.94516667,3.22616667 7.47933333,3.159 6.942,3.159 C6.45666667,3.159 6.03416667,3.2175 5.6745,3.3345 C5.31483333,3.4515 5.0115,3.614 4.7645,3.822 C4.5175,4.03 4.33333333,4.27916667 4.212,4.5695 C4.09066667,4.85983333 4.03,5.17833333 4.03,5.525 C4.03,5.967 4.1535,6.33533333 4.4005,6.63 C4.6475,6.92466667 4.97466667,7.176 5.382,7.384 C5.78933333,7.592 6.253,7.77833333 6.773,7.943 C7.293,8.10766667 7.82383333,8.28316667 8.3655,8.4695 C8.90716667,8.65583333 9.438,8.8725 9.958,9.1195 C10.478,9.3665 10.9416667,9.6785 11.349,10.0555 C11.7563333,10.4325 12.0835,10.894 12.3305,11.44 C12.5775,11.986 12.701,12.649 12.701,13.429 C12.701,14.2783333 12.5558333,15.0735 12.2655,15.8145 C11.9751667,16.5555 11.5505,17.2011667 10.9915,17.7515 C10.4325,18.3018333 9.75,18.7351667 8.944,19.0515 C8.138,19.3678333 7.215,19.526 6.175,19.526 C5.577,19.526 4.98766667,19.4675 4.407,19.3505 C3.82633333,19.2335 3.2695,19.0666667 2.7365,18.85 C2.2035,18.6333333 1.70516667,18.3733333 1.2415,18.07 C0.777833333,17.7666667 0.364,17.4286667 0,17.056 L1.014,15.379 C1.10933333,15.2576667 1.22416667,15.1558333 1.3585,15.0735 C1.49283333,14.9911667 1.64233333,14.95 1.807,14.95 C2.02366667,14.95 2.25766667,15.0388333 2.509,15.2165 C2.76033333,15.3941667 3.05716667,15.5913333 3.3995,15.808 C3.74183333,16.0246667 4.14483333,16.2218333 4.6085,16.3995 C5.07216667,16.5771667 5.629,16.666 6.279,16.666 C7.27566667,16.666 8.047,16.4298333 8.593,15.9575 C9.139,15.4851667 9.412,14.807 9.412,13.923 C9.412,13.429 9.2885,13.026 9.0415,12.714 C8.7945,12.402 8.46733333,12.1398333 8.06,11.9275 C7.65266667,11.7151667 7.189,11.5353333 6.669,11.388 C6.149,11.2406667 5.62033333,11.0803333 5.083,10.907 C4.54566667,10.7336667 4.017,10.5256667 3.497,10.283 C2.977,10.0403333 2.51333333,9.724 2.106,9.334 C1.69866667,8.944 1.3715,8.4565 1.1245,7.8715 C0.8775,7.2865 0.754,6.565 0.754,5.707 C0.754,5.02233333 0.8905,4.355 1.1635,3.705 C1.4365,3.055 1.83516667,2.47866667 2.3595,1.976 C2.88383333,1.47333333 3.52733333,1.07033333 4.29,0.767 C5.05266667,0.463666667 5.92366667,0.312 6.903,0.312 C8.01233333,0.312 9.035,0.485333333 9.971,0.832 C10.907,1.17866667 11.7043333,1.664 12.363,2.288 L11.505,3.939 Z"/><polygon points="18.616 0 18.616 19.318 15.405 19.318 15.405 0"/><path d="M25.662 5.98 25.662 19.318 22.451 19.318 22.451 5.98 25.662 5.98ZM26.143 2.093C26.143 2.37033333 26.0866667 2.63033333 25.974 2.873 25.8613333 3.11566667 25.7118333 3.328 25.5255 3.51 25.3391667 3.692 25.1203333 3.83716667 24.869 3.9455 24.6176667 4.05383333 24.349 4.108 24.063 4.108 23.7856667 4.108 23.5235 4.05383333 23.2765 3.9455 23.0295 3.83716667 22.815 3.692 22.633 3.51 22.451 3.328 22.3058333 3.11566667 22.1975 2.873 22.0891667 2.63033333 22.035 2.37033333 22.035 2.093 22.035 1.807 22.0891667 1.53833333 22.1975 1.287 22.3058333 1.03566667 22.451.819 22.633.637 22.815.455 23.0295.309833333 23.2765.2015 23.5235.0931666667 23.7856667.039 24.063.039 24.349.039 24.6176667.0931666667 24.869.2015 25.1203333.309833333 25.3391667.455 25.5255.637 25.7118333.819 25.8613333 1.03566667 25.974 1.287 26.0866667 1.53833333 26.143 1.807 26.143 2.093ZM38.675 19.318C38.259 19.318 37.986 19.123 37.856 18.733L37.596 17.446C37.3186667 17.758 37.0283333 18.0396667 36.725 18.291 36.4216667 18.5423333 36.0945 18.759 35.7435 18.941 35.3925 19.123 35.0155 19.2638333 34.6125 19.3635 34.2095 19.4631667 33.774 19.513 33.306 19.513 32.578 19.513 31.9106667 19.3613333 31.304 19.058 30.6973333 18.7546667 30.1751667 18.3148333 29.7375 17.7385 29.2998333 17.1621667 28.9618333 16.4493333 28.7235 15.6 28.4851667 14.7506667 28.366 13.78 28.366 12.688 28.366 11.7 28.5003333 10.7813333 28.769 9.932 29.0376667 9.08266667 29.4233333 8.346 29.926 7.722 30.4286667 7.098 31.031 6.6105 31.733 6.2595 32.435 5.9085 33.2236667 5.733 34.099 5.733 34.8443333 5.733 35.4813333 5.85216667 36.01 6.0905 36.5386667 6.32883333 37.011 6.64733333 37.427 7.046L37.427 0 40.638 0 40.638 19.318 38.675 19.318ZM34.398 16.965C35.0653333 16.965 35.633 16.8263333 36.101 16.549 36.569 16.2716667 37.011 15.8773333 37.427 15.366L37.427 9.386C37.063 8.944 36.6665 8.632 36.2375 8.45 35.8085 8.268 35.347 8.177 34.853 8.177 34.3676667 8.177 33.9278333 8.268 33.5335 8.45 33.1391667 8.632 32.8055 8.90716667 32.5325 9.2755 32.2595 9.64383333 32.0493333 10.1118333 31.902 10.6795 31.7546667 11.2471667 31.681 11.9166667 31.681 12.688 31.681 13.468 31.7438333 14.1288333 31.8695 14.6705 31.9951667 15.2121667 32.175 15.6541667 32.409 15.9965 32.643 16.3388333 32.929 16.5858333 33.267 16.7375 33.605 16.8891667 33.982 16.965 34.398 16.965ZM49.621 5.772C50.4616667 5.772 51.2351667 5.90633333 51.9415 6.175 52.6478333 6.44366667 53.2566667 6.83583333 53.768 7.3515 54.2793333 7.86716667 54.678 8.49983333 54.964 9.2495 55.25 9.99916667 55.393 10.855 55.393 11.817 55.393 12.0596667 55.3821667 12.2611667 55.3605 12.4215 55.3388333 12.5818333 55.2998333 12.7075 55.2435 12.7985 55.1871667 12.8895 55.1113333 12.9545 55.016 12.9935 54.9206667 13.0325 54.7993333 13.052 54.652 13.052L46.41 13.052C46.5053333 14.4213333 46.8736667 15.4266667 47.515 16.068 48.1563333 16.7093333 49.0056667 17.03 50.063 17.03 50.583 17.03 51.0315 16.9693333 51.4085 16.848 51.7855 16.7266667 52.1148333 16.5923333 52.3965 16.445 52.6781667 16.2976667 52.9251667 16.1633333 53.1375 16.042 53.3498333 15.9206667 53.5556667 15.86 53.755 15.86 53.885 15.86 53.9976667 15.886 54.093 15.938 54.1883333 15.99 54.2706667 16.0636667 54.34 16.159L55.276 17.329C54.9206667 17.745 54.522 18.0938333 54.08 18.3755 53.638 18.6571667 53.1765 18.8825 52.6955 19.0515 52.2145 19.2205 51.7248333 19.3396667 51.2265 19.409 50.7281667 19.4783333 50.245 19.513 49.777 19.513 48.8496667 19.513 47.9873333 19.3591667 47.19 19.0515 46.3926667 18.7438333 45.6993333 18.2888333 45.11 17.6865 44.5206667 17.0841667 44.057 16.3388333 43.719 15.4505 43.381 14.5621667 43.212 13.533 43.212 12.363 43.212 11.453 43.3593333 10.5971667 43.654 9.7955 43.9486667 8.99383333 44.3711667 8.29616667 44.9215 7.7025 45.4718333 7.10883333 46.1435 6.63866667 46.9365 6.292 47.7295 5.94533333 48.6243333 5.772 49.621 5.772ZM49.686 8.073C48.75 8.073 48.0176667 8.33733333 47.489 8.866 46.9603333 9.39466667 46.6223333 10.1443333 46.475 11.115L52.507 11.115C52.507 10.699 52.4506667 10.3068333 52.338 9.9385 52.2253333 9.57016667 52.052 9.24733333 51.818 8.97 51.584 8.69266667 51.2893333 8.47383333 50.934 8.3135 50.5786667 8.15316667 50.1626667 8.073 49.686 8.073Z"/><polygon points="60.346 18.187 69.069 18.187 69.069 19.318 59.02 19.318 59.02 .923 60.346 .923"/><path d="M73.294 6.383 73.294 19.318 72.059 19.318 72.059 6.383 73.294 6.383ZM73.84 1.924C73.84 2.08 73.8075 2.22516667 73.7425 2.3595 73.6775 2.49383333 73.593 2.613 73.489 2.717 73.385 2.821 73.2636667 2.90333333 73.125 2.964 72.9863333 3.02466667 72.839 3.055 72.683 3.055 72.527 3.055 72.3796667 3.02466667 72.241 2.964 72.1023333 2.90333333 71.981 2.821 71.877 2.717 71.773 2.613 71.6906667 2.49383333 71.63 2.3595 71.5693333 2.22516667 71.539 2.08 71.539 1.924 71.539 1.768 71.5693333 1.6185 71.63 1.4755 71.6906667 1.3325 71.773 1.209 71.877 1.105 71.981 1.001 72.1023333.918666667 72.241.858 72.3796667.797333333 72.527.767 72.683.767 72.839.767 72.9863333.797333333 73.125.858 73.2636667.918666667 73.385 1.001 73.489 1.105 73.593 1.209 73.6775 1.3325 73.7425 1.4755 73.8075 1.6185 73.84 1.768 73.84 1.924ZM86.502 6.903C86.502 7.085 86.4413333 7.24966667 86.32 7.397L78.221 18.343 86.177 18.343 86.177 19.318 76.726 19.318 76.726 18.824C76.726 18.6766667 76.791 18.5163333 76.921 18.343L85.046 7.358 77.155 7.358 77.155 6.383 86.502 6.383 86.502 6.903ZM97.877 19.318C97.617 19.318 97.4566667 19.1966667 97.396 18.954L97.214 17.303C96.8586667 17.6496667 96.5055 17.9616667 96.1545 18.239 95.8035 18.5163333 95.4373333 18.7503333 95.056 18.941 94.6746667 19.1316667 94.263 19.2768333 93.821 19.3765 93.379 19.4761667 92.8936667 19.526 92.365 19.526 91.923 19.526 91.494 19.461 91.078 19.331 90.662 19.201 90.2936667 19.0016667 89.973 18.733 89.6523333 18.4643333 89.3945 18.1198333 89.1995 17.6995 89.0045 17.2791667 88.907 16.7743333 88.907 16.185 88.907 15.639 89.063 15.132 89.375 14.664 89.687 14.196 90.1745 13.7886667 90.8375 13.442 91.5005 13.0953333 92.3541667 12.818 93.3985 12.61 94.4428333 12.402 95.6973333 12.2806667 97.162 12.246L97.162 10.894C97.162 9.698 96.9041667 8.77716667 96.3885 8.1315 95.8728333 7.48583333 95.108 7.163 94.094 7.163 93.47 7.163 92.9391667 7.24966667 92.5015 7.423 92.0638333 7.59633333 91.6933333 7.787 91.39 7.995 91.0866667 8.203 90.8396667 8.39366667 90.649 8.567 90.4583333 8.74033333 90.298 8.827 90.168 8.827 89.9946667 8.827 89.8646667 8.749 89.778 8.593L89.557 8.216C90.233 7.54 90.9436667 7.02866667 91.689 6.682 92.4343333 6.33533333 93.2793333 6.162 94.224 6.162 94.9173333 6.162 95.524 6.2725 96.044 6.4935 96.564 6.7145 96.9951667 7.03083333 97.3375 7.4425 97.6798333 7.85416667 97.9376667 8.3525 98.111 8.9375 98.2843333 9.5225 98.371 10.1746667 98.371 10.894L98.371 19.318 97.877 19.318ZM92.677 18.629C93.1796667 18.629 93.6411667 18.5748333 94.0615 18.4665 94.4818333 18.3581667 94.8718333 18.2065 95.2315 18.0115 95.5911667 17.8165 95.927 17.5846667 96.239 17.316 96.551 17.0473333 96.8586667 16.757 97.162 16.445L97.162 13.078C95.9313333 13.1126667 94.8718333 13.2058333 93.9835 13.3575 93.0951667 13.5091667 92.3628333 13.715 91.7865 13.975 91.2101667 14.235 90.7855 14.5448333 90.5125 14.9045 90.2395 15.2641667 90.103 15.6736667 90.103 16.133 90.103 16.5663333 90.1745 16.9411667 90.3175 17.2575 90.4605 17.5738333 90.649 17.8338333 90.883 18.0375 91.117 18.2411667 91.39 18.3906667 91.702 18.486 92.014 18.5813333 92.339 18.629 92.677 18.629ZM102.271 19.318 102.271 6.383 102.921 6.383C103.068333 6.383 103.1745 6.41333333 103.2395 6.474 103.3045 6.53466667 103.341333 6.63866667 103.35 6.786L103.454 9.516C103.87 8.46733333 104.424667 7.64616667 105.118 7.0525 105.811333 6.45883333 106.665 6.162 107.679 6.162 108.069 6.162 108.428667 6.20316667 108.758 6.2855 109.087333 6.36783333 109.399333 6.487 109.694 6.643L109.525 7.501C109.499 7.63966667 109.412333 7.709 109.265 7.709 109.213 7.709 109.139333 7.69166667 109.044 7.657 108.948667 7.62233333 108.8295 7.58333333 108.6865 7.54 108.5435 7.49666667 108.368 7.45766667 108.16 7.423 107.952 7.38833333 107.713667 7.371 107.445 7.371 106.465667 7.371 105.661833 7.67433333 105.0335 8.281 104.405167 8.88766667 103.896 9.763 103.506 10.907L103.506 19.318 102.271 19.318ZM121.758 19.318C121.541333 19.318 121.415667 19.2053333 121.381 18.98L121.251 16.939C120.679 17.719 120.0095 18.3386667 119.2425 18.798 118.4755 19.2573333 117.615333 19.487 116.662 19.487 115.076 19.487 113.838833 18.9366667 112.9505 17.836 112.062167 16.7353333 111.618 15.0843333 111.618 12.883 111.618 11.9383333 111.7415 11.0565 111.9885 10.2375 112.2355 9.4185 112.5995 8.70783333 113.0805 8.1055 113.5615 7.50316667 114.150833 7.02866667 114.8485 6.682 115.546167 6.33533333 116.35 6.162 117.26 6.162 118.135333 6.162 118.893667 6.3245 119.535 6.6495 120.176333 6.9745 120.731 7.449 121.199 8.073L121.199.403 122.447.403 122.447 19.318 121.758 19.318ZM117.013 18.486C117.871 18.486 118.646667 18.265 119.34 17.823 120.033333 17.381 120.653 16.7656667 121.199 15.977L121.199 9.152C120.696333 8.41533333 120.143833 7.89533333 119.5415 7.592 118.939167 7.28866667 118.256667 7.137 117.494 7.137 116.731333 7.137 116.064 7.27566667 115.492 7.553 114.92 7.83033333 114.441167 8.2225 114.0555 8.7295 113.669833 9.2365 113.3795 9.84316667 113.1845 10.5495 112.9895 11.2558333 112.892 12.0336667 112.892 12.883 112.892 14.807 113.247333 16.2218333 113.958 17.1275 114.668667 18.0331667 115.687 18.486 117.013 18.486Z"/></g><g fill="#FFF" fill-opacity=".802" fill-rule="nonzero" transform="translate(43 33)"><polygon points="4.512 .195 4.512 1.238 1.341 1.238 1.341 3.192 3.84 3.192 3.84 4.2 1.341 4.2 1.341 6.193 4.512 6.193 4.512 7.241 0 7.241 0 .195"/><path d="M5.5960819 7.24093124 5.5960819 2.24147266 6.3135283 2.24147266C6.43887526 2.24147266 6.52628827 2.26421224 6.57576733 2.30969139 6.62524639 2.35517055 6.65823243 2.43313481 6.67472545 2.54358419L6.74894404 3.14780726C6.93036727 2.8391987 7.14312724 2.59556037 7.38722394 2.41689226 7.63132065 2.23822415 7.90510479 2.14889009 8.20857637 2.14889009 8.45927028 2.14889009 8.66708234 2.20573904 8.83201255 2.31943692L8.67367955 3.22089875C8.66378374 3.27937195 8.64234281 3.32079047 8.60935677 3.3451543 8.57637073 3.36951814 8.53183958 3.38170005 8.47576331 3.38170005 8.42628424 3.38170005 8.35866286 3.37033027 8.27289915 3.34759069 8.18713544 3.32485111 8.0733336 3.31348132 7.93149362 3.31348132 7.67750111 3.31348132 7.45979323 3.38251218 7.27837001 3.5205739 7.09694678 3.65863563 6.94356169 3.86085544 6.81821473 4.12723335L6.81821473 7.24093124 5.5960819 7.24093124ZM9.85622913 7.24093124 9.85622913 3.14780726 9.41586548 3.07958852C9.32020596 3.06334597 9.24351342 3.03086086 9.18578784 2.98213319 9.12806227 2.93340552 9.09919949 2.86518679 9.09919949 2.77747699L9.09919949 2.28532756 9.85622913 2.28532756 9.85622913 1.91499729C9.85622913 1.62912832 9.89993564 1.37249594 9.98734865 1.14510016 10.0747617.917704385 10.2001086.724417975 10.3633895.565240931 10.5266704.406063887 10.7254113.284244721 10.9596122.199783433 11.1938131.115322144 11.4577014.0730914997 11.7512772.0730914997 11.9854781.0730914997 12.203186.103952355 12.4044008.165674066L12.3796613.76989713C12.3730641.864103952 12.3285329.922577152 12.2460678.94531673 12.1636027.968056308 12.0679432.979426096 11.9590893.979426096 11.8139507.979426096 11.6844805.994856524 11.5706786 1.02571738 11.4568768 1.05657823 11.3603926 1.11017867 11.2812261 1.18651868 11.2020596 1.26285869 11.1418601 1.36356253 11.1006275 1.48863021 11.059395 1.61369789 11.0387787 1.76881429 11.0387787 1.95397943L11.0387787 2.28532756 12.3598697 2.28532756 12.3598697 3.14293449 11.078362 3.14293449 11.078362 7.24093124 9.85622913 7.24093124ZM15.2741864 2.16350839C15.6535259 2.16350839 15.9974054 2.22360585 16.3058249 2.34380076 16.6142443 2.46399567 16.877308 2.6345425 17.0950159 2.85544126 17.3127238 3.07634001 17.4809526 3.34596643 17.5997023 3.66432052 17.7184521 3.98267461 17.7778269 4.33838657 17.7778269 4.73145642 17.7778269 5.12777477 17.7184521 5.48511099 17.5997023 5.80346508 17.4809526 6.12181917 17.3127238 6.39306984 17.0950159 6.61721711 16.877308 6.84136437 16.6142443 7.01353546 16.3058249 7.13373037 15.9974054 7.25392528 15.6535259 7.31402274 15.2741864 7.31402274 14.8948469 7.31402274 14.5501428 7.25392528 14.240074 7.13373037 13.9300052 7.01353546 13.6652922 6.84136437 13.4459351 6.61721711 13.2265779 6.39306984 13.0566998 6.12181917 12.9363007 5.80346508 12.8159017 5.48511099 12.7557022 5.12777477 12.7557022 4.73145642 12.7557022 4.33838657 12.8159017 3.98267461 12.9363007 3.66432052 13.0566998 3.34596643 13.2265779 3.07634001 13.4459351 2.85544126 13.6652922 2.6345425 13.9300052 2.46399567 14.240074 2.34380076 14.5501428 2.22360585 14.8948469 2.16350839 15.2741864 2.16350839ZM15.2741864 6.38819708C15.6964077 6.38819708 16.0089505 6.2485111 16.2118146 5.96913914 16.4146788 5.68976719 16.5161109 5.28045479 16.5161109 4.74120195 16.5161109 4.20194911 16.4146788 3.79101245 16.2118146 3.50839199 16.0089505 3.22577152 15.6964077 3.08446129 15.2741864 3.08446129 14.8453679 3.08446129 14.5287019 3.22658365 14.3241884 3.51082837 14.119675 3.79507309 14.0174182 4.20519762 14.0174182 4.74120195 14.0174182 5.27720628 14.119675 5.68570655 14.3241884 5.96670276 14.5287019 6.24769897 14.8453679 6.38819708 15.2741864 6.38819708Z"/><polygon points="20.034 0 20.034 7.241 18.812 7.241 18.812 0"/><path d="M23.1710447 2.15376286C23.3887526 2.15376286 23.593266 2.17569031 23.7845851 2.21954521 23.9759041 2.26340011 24.1507301 2.3275582 24.3090631 2.41201949L25.7686954 2.41201949 25.7686954 2.86031402C25.7686954 2.93502978 25.7489038 2.99350298 25.7093206 3.03573362 25.6697373 3.07796427 25.6021159 3.10720087 25.5064564 3.12344342L25.051249 3.20628045C25.0842351 3.29074174 25.1097993 3.3800758 25.1279416 3.47428262 25.1460839 3.56848944 25.1551551 3.66756903 25.1551551 3.77152139 25.1551551 4.01840823 25.1048514 4.24174337 25.0042439 4.4415268 24.9036365 4.64131023 24.7650951 4.81104494 24.5886198 4.95073091 24.4121445 5.09041689 24.2026831 5.19842989 23.9602357 5.2747699 23.7177883 5.35110991 23.4547246 5.38927991 23.1710447 5.38927991 22.9797257 5.38927991 22.7933545 5.3714131 22.6119313 5.33567948 22.4535983 5.4298863 22.3744318 5.53546291 22.3744318 5.65240931 22.3744318 5.75311316 22.4214369 5.82701678 22.5154471 5.87412019 22.6094573 5.92122361 22.733155 5.95452084 22.8865401 5.97401191 23.0399252 5.99350298 23.2139265 6.00568489 23.4085442 6.01055766 23.6031618 6.01543043 23.8027274 6.02598809 24.0072408 6.04223064 24.2117543 6.0584732 24.4113198 6.08689767 24.6059375 6.12750406 24.8005551 6.16811045 24.9745565 6.23226854 25.1279416 6.31997834 25.2813267 6.40768814 25.4050243 6.52707093 25.4990346 6.67812669 25.5930448 6.82918246 25.6400499 7.023281 25.6400499 7.26042231 25.6400499 7.48132106 25.5847983 7.69572279 25.474295 7.9036275 25.3637918 8.11153221 25.2038095 8.29669735 24.9943481 8.4591229 24.7848868 8.62154846 24.5284203 8.75230103 24.2249487 8.85138062 23.9214771 8.95046021 23.5751237 9 23.1858884 9 22.7999517 9 22.4651434 8.96345425 22.1814635 8.89036275 21.8977835 8.81727125 21.662758 8.71981592 21.4763868 8.59799675 21.2900157 8.47617759 21.1506497 8.33567948 21.0582887 8.17650244 20.9659278 8.01732539 20.9197474 7.85165133 20.9197474 7.67948024 20.9197474 7.44558744 20.9923167 7.24905252 21.1374552 7.08987547 21.2825938 6.93069843 21.4838087 6.8040065 21.7410998 6.70979968 21.6157528 6.64158094 21.5151454 6.55062263 21.4392775 6.43692474 21.3634096 6.32322685 21.3254757 6.1754196 21.3254757 5.99350298 21.3254757 5.91878722 21.3386701 5.84163508 21.3650589 5.76204656 21.3914478 5.68245804 21.4318557 5.60368165 21.4862826 5.52571738 21.5407096 5.44775311 21.6091556 5.37384949 21.6916207 5.3040065 21.7740858 5.23416351 21.8713947 5.17162967 21.9835472 5.11640498 21.7262561 4.97996751 21.5242166 4.79805089 21.3774287 4.57065512 21.2306408 4.34325934 21.1572469 4.07688143 21.1572469 3.77152139 21.1572469 3.52463454 21.2075506 3.3012994 21.308158 3.10151597 21.4087654 2.90173254 21.5489561 2.73118571 21.72873 2.58987547 21.908504 2.44856524 22.1212639 2.34055225 22.3670099 2.26583649 22.6127559 2.19112074 22.8807675 2.15376286 23.1710447 2.15376286ZM24.5119273 7.46507851C24.5119273 7.36762317 24.4822398 7.28803465 24.422865 7.22631294 24.3634901 7.16459123 24.2826743 7.11667569 24.1804176 7.08256632 24.0781608 7.04845696 23.9585864 7.023281 23.8216944 7.00703844 23.6848023 6.99079589 23.5396637 6.97861397 23.3862786 6.97049269 23.2328935 6.96237141 23.0745605 6.95425014 22.9112796 6.94612886 22.7479987 6.93800758 22.5904904 6.92420141 22.4387546 6.90471034 22.3002132 6.9794261 22.1888853 7.06794802 22.1047709 7.17027612 22.0206565 7.27260422 21.9785993 7.39036275 21.9785993 7.52355171 21.9785993 7.61126151 22.0008649 7.69328641 22.045396 7.76962642 22.0899272 7.84596643 22.1608472 7.91174878 22.258156 7.96697347 22.3554648 8.02219816 22.4816364 8.06524093 22.6366708 8.09610179 22.7917052 8.12696264 22.981375 8.14239307 23.20568 8.14239307 23.4332837 8.14239307 23.6295507 8.12533839 23.7944809 8.09122902 23.9594111 8.05711965 24.0954785 8.01001624 24.2026831 7.94991879 24.3098878 7.88982133 24.3882296 7.81835409 24.4377087 7.73551705 24.4871877 7.65268002 24.5119273 7.56253384 24.5119273 7.46507851ZM23.1710447 4.61938278C23.3227805 4.61938278 23.4547246 4.59907959 23.5668772 4.5584732 23.6790297 4.51786681 23.7722153 4.46182999 23.8464339 4.39036275 23.9206525 4.31889551 23.9767288 4.23280996 24.0146627 4.13210612 24.0525966 4.03140227 24.0715636 3.9209529 24.0715636 3.80075799 24.0715636 3.55387114 23.9965204 3.35814835 23.8464339 3.2135896 23.6963474 3.06903086 23.4712177 2.99675149 23.1710447 2.99675149 22.8708717 2.99675149 22.645742 3.06903086 22.4956555 3.2135896 22.345569 3.35814835 22.2705258 3.55387114 22.2705258 3.80075799 22.2705258 3.91770439 22.2894927 4.02652951 22.3274267 4.12723335 22.3653606 4.2279372 22.4214369 4.31483487 22.4956555 4.38792637 22.5698741 4.46101787 22.6638843 4.51786681 22.7776861 4.5584732 22.891488 4.59907959 23.0226075 4.61938278 23.1710447 4.61938278ZM32.017901 7.24093124C31.859568 7.24093124 31.7556619 7.16783974 31.7061829 7.02165674L31.6072247 6.53925284C31.5016694 6.65619924 31.3911662 6.76177585 31.275715 6.85598267 31.1602639 6.9501895 31.0357416 7.03140227 30.9021481 7.09962101 30.7685546 7.16783974 30.6250654 7.22062805 30.4716803 7.25798592 30.3182952 7.2953438 30.1525403 7.31402274 29.9744157 7.31402274 29.697333 7.31402274 29.4433404 7.2571738 29.2124382 7.14347591 28.9815359 7.02977802 28.782795 6.86491608 28.6162155 6.64889009 28.4496359 6.4328641 28.3209904 6.16567407 28.2302788 5.84731998 28.1395672 5.52896589 28.0942114 5.16513265 28.0942114 4.75582025 28.0942114 4.38548998 28.1453397 4.04114781 28.2475964 3.72279372 28.3498532 3.40443963 28.4966411 3.12831619 28.6879601 2.89442339 28.8792791 2.66053059 29.1085321 2.47780184 29.3757191 2.34623714 29.642906 2.21467244 29.943079 2.14889009 30.276238 2.14889009 30.5599179 2.14889009 30.8023653 2.19355712 31.0035802 2.28289117 31.204795 2.37222523 31.384569 2.49160801 31.542902 2.64103952L31.542902 0 32.7650348 0 32.7650348 7.24093124 32.017901 7.24093124ZM30.3900398 6.35896048C30.6440323 6.35896048 30.8600909 6.3069843 31.0382155 6.20303194 31.2163402 6.09907959 31.384569 5.95127233 31.542902 5.75961018L31.542902 3.51813752C31.4043606 3.35246345 31.2534495 3.23551705 31.0901686 3.16729832 30.9268876 3.09907959 30.751237 3.06497022 30.5632165 3.06497022 30.3784947 3.06497022 30.2110906 3.09907959 30.0610041 3.16729832 29.9109176 3.23551705 29.7839213 3.33865728 29.6800153 3.476719 29.5761093 3.61478073 29.4961181 3.79020032 29.4400418 4.0029778 29.3839656 4.21575528 29.3559274 4.46670276 29.3559274 4.75582025 29.3559274 5.04818625 29.3798423 5.29588522 29.4276721 5.49891716 29.4755018 5.70194911 29.5439479 5.86762317 29.6330102 5.99593936 29.7220725 6.12425555 29.8309264 6.21683812 29.959572 6.27368706 30.0882175 6.330536 30.2317068 6.35896048 30.3900398 6.35896048ZM35.2043525 2.24147266 35.2043525 5.41851651C35.2043525 5.72387656 35.2760972 5.96020574 35.4195865 6.12750406 35.5630757 6.29480238 35.7783097 6.37845154 36.0652882 6.37845154 36.2763989 6.37845154 36.4743151 6.33216026 36.659037 6.23957769 36.8437588 6.14699513 37.0185848 6.01949107 37.183515 5.85706551L37.183515 2.24147266 38.4056479 2.24147266 38.4056479 7.24093124 37.658514 7.24093124C37.500181 7.24093124 37.396275 7.16783974 37.3467959 7.02165674L37.2626815 6.62208988C37.1571262 6.72604223 37.0482723 6.82106118 36.9361197 6.90714672 36.8239672 6.99323227 36.7043928 7.06632377 36.5773965 7.12642122 36.4504003 7.18651868 36.3135082 7.23362209 36.1667203 7.26773146 36.0199324 7.30184082 35.8624241 7.31889551 35.6941953 7.31889551 35.4171125 7.31889551 35.1721912 7.27260422 34.9594312 7.18002166 34.7466712 7.08743909 34.567722 6.95668652 34.4225834 6.78776394 34.2774448 6.61884136 34.1677662 6.4182458 34.0935476 6.18597726 34.019329 5.95370872 33.9822197 5.69788847 33.9822197 5.41851651L33.9822197 2.24147266 35.2043525 2.24147266ZM39.7118951 7.24093124 39.7118951 2.24147266 40.4293415 2.24147266C40.5546884 2.24147266 40.6421015 2.26421224 40.6915805 2.30969139 40.7410596 2.35517055 40.7740456 2.43313481 40.7905386 2.54358419L40.8647572 3.14780726C41.0461805 2.8391987 41.2589404 2.59556037 41.5030371 2.41689226 41.7471338 2.23822415 42.020918 2.14889009 42.3243896 2.14889009 42.5750835 2.14889009 42.7828955 2.20573904 42.9478257 2.31943692L42.7894927 3.22089875C42.7795969 3.27937195 42.758156 3.32079047 42.72517 3.3451543 42.6921839 3.36951814 42.6476528 3.38170005 42.5915765 3.38170005 42.5420974 3.38170005 42.474476 3.37033027 42.3887123 3.34759069 42.3029486 3.32485111 42.1891468 3.31348132 42.0473068 3.31348132 41.7933143 3.31348132 41.5756064 3.38251218 41.3941832 3.5205739 41.21276 3.65863563 41.0593749 3.86085544 40.9340279 4.12723335L40.9340279 7.24093124 39.7118951 7.24093124ZM47.3217748 3.29886302C47.2854902 3.34434218 47.2500302 3.3800758 47.2153948 3.40606389 47.1807595 3.43205198 47.1304558 3.44504602 47.0644837 3.44504602 47.0018102 3.44504602 46.940786 3.42636708 46.8814112 3.3890092 46.8220363 3.35165133 46.7511163 3.30942068 46.6686512 3.26231727 46.5861861 3.21521386 46.4880526 3.17298322 46.3742508 3.13562534 46.2604489 3.09826746 46.1194336 3.07958852 45.9512048 3.07958852 45.7367955 3.07958852 45.5487751 3.11775853 45.3871435 3.19409854 45.2255119 3.27043855 45.0910938 3.3800758 44.9838891 3.52301029 44.8766845 3.66594478 44.7966934 3.83892799 44.7439157 4.04195994 44.691138 4.24499188 44.6647492 4.47482404 44.6647492 4.73145642 44.6647492 4.99783433 44.693612 5.23497564 44.7513375 5.44288035 44.8090631 5.65078506 44.8923529 5.82539253 45.0012068 5.96670276 45.1100607 6.10801299 45.2420049 6.21521386 45.3970393 6.28830536 45.5520737 6.36139686 45.7268997 6.39794261 45.9215174 6.39794261 46.116135 6.39794261 46.2736433 6.3743909 46.3940424 6.32728749 46.5144414 6.28018408 46.6158735 6.2282079 46.6983386 6.17135896 46.7808037 6.11451002 46.8525484 6.06253384 46.9135725 6.01543043 46.9745967 5.96832702 47.0430428 5.94477531 47.1189107 5.94477531 47.2178688 5.94477531 47.2920874 5.98213319 47.3415664 6.05684894L47.6928678 6.49539794C47.557625 6.65132648 47.4108371 6.78207905 47.2525041 6.88765566 47.0941711 6.99323227 46.9300656 7.07769356 46.7601875 7.14103952 46.5903093 7.20438549 46.4146587 7.24905252 46.2332354 7.27504061 46.0518122 7.3010287 45.8720383 7.31402274 45.6939137 7.31402274 45.3805463 7.31402274 45.0853212 7.25636167 44.8082385 7.14103952 44.5311557 7.02571738 44.289533 6.85760693 44.0833702 6.63670818 43.8772075 6.41580942 43.7139265 6.14537087 43.5935275 5.82539253 43.4731284 5.50541419 43.4129289 5.14076881 43.4129289 4.73145642 43.4129289 4.36437466 43.4665312 4.02409312 43.5737359 3.7106118 43.6809405 3.39713048 43.8384489 3.12587981 44.0462609 2.89685977 44.254073 2.66783974 44.5113641 2.4883595 44.8181343 2.35841906 45.1249045 2.22847861 45.4778551 2.16350839 45.8769862 2.16350839 46.2563257 2.16350839 46.58866 2.22360585 46.8739893 2.34380076 47.1593186 2.46399567 47.415785 2.63616676 47.6433887 2.86031402L47.3217748 3.29886302ZM48.474637 7.24093124 48.474637 0 49.6967698 0 49.6967698 2.78234976C49.894686 2.59718462 50.1123939 2.44775311 50.3498934 2.33405522 50.5873929 2.22035734 50.8661249 2.16350839 51.1860895 2.16350839 51.4631723 2.16350839 51.7089183 2.20979968 51.9233276 2.30238224 52.1377368 2.39496481 52.3166861 2.52490525 52.4601754 2.69220357 52.6036647 2.85950189 52.7125186 3.05928533 52.7867372 3.29155387 52.8609558 3.52382241 52.8980651 3.77964266 52.8980651 4.05901462L52.8980651 7.24093124 51.6759323 7.24093124 51.6759323 4.05901462C51.6759323 3.75365457 51.6041876 3.51732539 51.4606983 3.35002707 51.3172091 3.18272875 51.1019751 3.09907959 50.8149966 3.09907959 50.6038859 3.09907959 50.4059697 3.146183 50.2212478 3.24038982 50.036526 3.33459664 49.8617 3.46291283 49.6967698 3.62533839L49.6967698 7.24093124 48.474637 7.24093124ZM57.4550867 4.76069302 57.4550867 7.24093124 56.1240999 7.24093124 56.1240999.194910666 58.4545637.194910666C58.9328613.194910666 59.3468362.250135355 59.6964882.360584732 60.0461402.471034109 60.3347681.625338387 60.5623718.823497564 60.7899755 1.02165674 60.9582043 1.25879805 61.0670582 1.53492149 61.1759121 1.81104494 61.2303391 2.11315647 61.2303391 2.44125609 61.2303391 2.78234976 61.1726135 3.09501895 61.0571624 3.37926367 60.9417113 3.66350839 60.7685345 3.90795885 60.5376322 4.11261505 60.30673 4.31727125 60.0181021 4.47644829 59.6717487 4.59014618 59.3253952 4.70384407 58.9196669 4.76069302 58.4545637 4.76069302L57.4550867 4.76069302ZM57.4550867 3.73741202 58.4545637 3.73741202C58.6986604 3.73741202 58.9114204 3.70736329 59.0928436 3.64726584 59.2742669 3.58716838 59.4243534 3.50108284 59.5431031 3.3890092 59.6618529 3.27693557 59.7509152 3.14049811 59.81029 2.97969681 59.8696649 2.81889551 59.8993523 2.63941527 59.8993523 2.44125609 59.8993523 2.25284245 59.8696649 2.08229561 59.81029 1.92961559 59.7509152 1.77693557 59.6618529 1.64699513 59.5431031 1.53979426 59.4243534 1.43259339 59.2742669 1.35056849 59.0928436 1.29371955 58.9114204 1.2368706 58.6986604 1.20844613 58.4545637 1.20844613L57.4550867 1.20844613 57.4550867 3.73741202ZM62.1951808 7.24093124 62.1951808 2.24147266 62.9126272 2.24147266C63.0379742 2.24147266 63.1253872 2.26421224 63.1748662 2.30969139 63.2243453 2.35517055 63.2573313 2.43313481 63.2738244 2.54358419L63.348043 3.14780726C63.5294662 2.8391987 63.7422262 2.59556037 63.9863229 2.41689226 64.2304196 2.23822415 64.5042037 2.14889009 64.8076753 2.14889009 65.0583692 2.14889009 65.2661813 2.20573904 65.4311115 2.31943692L65.2727785 3.22089875C65.2628827 3.27937195 65.2414417 3.32079047 65.2084557 3.3451543 65.1754696 3.36951814 65.1309385 3.38170005 65.0748622 3.38170005 65.0253832 3.38170005 64.9577618 3.37033027 64.8719981 3.34759069 64.7862344 3.32485111 64.6724325 3.31348132 64.5305925 3.31348132 64.2766 3.31348132 64.0588922 3.38251218 63.8774689 3.5205739 63.6960457 3.65863563 63.5426606 3.86085544 63.4173136 4.12723335L63.4173136 7.24093124 62.1951808 7.24093124ZM70.0722475 7.24093124 69.5230299 7.24093124C69.4075787 7.24093124 69.3168671 7.22387656 69.250895 7.18976719 69.184923 7.15565782 69.1354439 7.08662696 69.1024579 6.98267461L68.9936039 6.62696264C68.8649584 6.74066053 68.7387868 6.84055225 68.6150891 6.92663779 68.4913914 7.01272334 68.3635705 7.08500271 68.2316264 7.14347591 68.0996822 7.20194911 67.9594915 7.24580401 67.8110543 7.27504061 67.6626172 7.30427721 67.497687 7.31889551 67.3162637 7.31889551 67.1018545 7.31889551 66.9039382 7.29047103 66.722515 7.23362209 66.5410918 7.17677315 66.3852327 7.09149973 66.2549378 6.97780184 66.124643 6.86410395 66.0232109 6.72279372 65.9506416 6.55387114 65.8780723 6.38494857 65.8417877 6.18841364 65.8417877 5.96426638 65.8417877 5.77585273 65.8920914 5.58987547 65.9926988 5.4063346 66.0933062 5.22279372 66.2607104 5.05711965 66.4949113 4.9093124 66.7291122 4.76150514 67.0408303 4.63887385 67.4300656 4.54141852 67.8193009 4.44396318 68.3025464 4.38873849 68.8798021 4.37574445L68.8798021 4.08337845C68.8798021 3.74878181 68.8080574 3.50108284 68.6645682 3.34028154 68.5210789 3.17948024 68.3124422 3.09907959 68.038658 3.09907959 67.8407418 3.09907959 67.6758116 3.12181917 67.5438674 3.16729832 67.4119232 3.21277748 67.2972968 3.26394153 67.1999879 3.32079047 67.1026791 3.37763942 67.0127921 3.42880347 66.930327 3.47428262 66.8478619 3.51976178 66.7571503 3.54250135 66.6581922 3.54250135 66.5757271 3.54250135 66.5048071 3.52138603 66.4454322 3.47915539 66.3860574 3.43692474 66.3382276 3.38494857 66.301943 3.32322685L66.0792872 2.93827829C66.6631401 2.41201949 67.3673921 2.14889009 68.1920431 2.14889009 68.4889175 2.14889009 68.7536305 2.19680563 68.9861821 2.29263671 69.2187337 2.38846779 69.4158253 2.52165674 69.5774569 2.69220357 69.7390885 2.86275041 69.8619615 3.06659448 69.9460759 3.30373579 70.0301903 3.5408771 70.0722475 3.80075799 70.0722475 4.08337845L70.0722475 7.24093124ZM67.6972525 6.49052518C67.8225995 6.49052518 67.9380506 6.47915539 68.0436059 6.45641581 68.1491613 6.43367623 68.248944 6.39956687 68.3429543 6.35408771 68.4369645 6.30860855 68.5276761 6.25257174 68.6150891 6.18597726 68.7025021 6.11938278 68.7907398 6.04060639 68.8798021 5.94964808L68.8798021 5.10665945C68.5235528 5.122902 68.2258538 5.15295073 67.986705 5.19680563 67.7475562 5.24066053 67.5554125 5.29669735 67.4102739 5.36491608 67.2651354 5.43313481 67.162054 5.51272334 67.1010298 5.60368165 67.0400056 5.69463996 67.0094935 5.79371955 67.0094935 5.90092041 67.0094935 6.11207363 67.0729917 6.2631294 67.1999879 6.35408771 67.3269842 6.44504602 67.492739 6.49052518 67.6972525 6.49052518ZM67.9001167.94531673C67.9001167 1.03627504 67.8819743 1.12154846 67.8456897 1.20113698 67.809405 1.2807255 67.7591013 1.34975636 67.6947786 1.40822956 67.6304558 1.46670276 67.5562372 1.51299404 67.4721228 1.54710341 67.3880084 1.58121278 67.2997707 1.59826746 67.2074098 1.59826746 67.1183475 1.59826746 67.0334084 1.58121278 66.9525926 1.54710341 66.8717768 1.51299404 66.8000322 1.46670276 66.7373587 1.40822956 66.6746852 1.34975636 66.6252062 1.2807255 66.5889215 1.20113698 66.5526369 1.12154846 66.5344945 1.03627504 66.5344945.94531673 66.5344945.851109908 66.5526369.762587981 66.5889215.679750947 66.6252062.596913914 66.6746852.524634543 66.7373587.462912832 66.8000322.401191121 66.8717768.352463454 66.9525926.316729832 67.0334084.28099621 67.1183475.263129399 67.2074098.263129399 67.2997707.263129399 67.3880084.28099621 67.4721228.316729832 67.5562372.352463454 67.6304558.401191121 67.6947786.462912832 67.7591013.524634543 67.809405.596913914 67.8456897.679750947 67.8819743.762587981 67.9001167.851109908 67.9001167.94531673ZM69.7506336.94531673C69.7506336 1.03627504 69.7324913 1.12154846 69.6962066 1.20113698 69.659922 1.2807255 69.6104429 1.34975636 69.5477694 1.40822956 69.4850959 1.46670276 69.411702 1.51299404 69.3275876 1.54710341 69.2434732 1.58121278 69.1552355 1.59826746 69.0628746 1.59826746 68.9705137 1.59826746 68.8831007 1.58121278 68.8006356 1.54710341 68.7181705 1.51299404 68.6464258 1.46670276 68.5854017 1.40822956 68.5243775 1.34975636 68.4757231 1.2807255 68.4394384 1.20113698 68.4031538 1.12154846 68.3850115 1.03627504 68.3850115.94531673 68.3850115.851109908 68.4031538.762587981 68.4394384.679750947 68.4757231.596913914 68.5243775.524634543 68.5854017.462912832 68.6464258.401191121 68.7181705.352463454 68.8006356.316729832 68.8831007.28099621 68.9705137.263129399 69.0628746.263129399 69.1552355.263129399 69.2434732.28099621 69.3275876.316729832 69.411702.352463454 69.4850959.401191121 69.5477694.462912832 69.6104429.524634543 69.659922.596913914 69.6962066.679750947 69.7324913.762587981 69.7506336.851109908 69.7506336.94531673ZM74.2878636 3.21602599C74.2548775 3.26800217 74.2202422 3.30454792 74.1839575 3.32566324 74.1476729 3.34677856 74.1014924 3.35733622 74.0454161 3.35733622 73.9860413 3.35733622 73.9225431 3.34109367 73.8549218 3.30860855 73.7873004 3.27612344 73.7089585 3.23957769 73.6198962 3.1989713 73.5308339 3.15836492 73.4294018 3.12181917 73.3156 3.08933406 73.2017981 3.05684894 73.06738 3.04060639 72.9123456 3.04060639 72.6715475 3.04060639 72.4818778 3.09095831 72.3433364 3.19166215 72.204795 3.292366 72.1355244 3.4239307 72.1355244 3.58635625 72.1355244 3.69355712 72.1709844 3.7837033 72.2419043 3.8567948 72.3128243 3.9298863 72.4068345 3.9940444 72.523935 4.04926909 72.6410354 4.10449377 72.7738043 4.15403357 72.9222414 4.19788847 73.0706786 4.24174337 73.2224144 4.28965891 73.3774488 4.34163508 73.5324832 4.39361126 73.684219 4.45289659 73.8326562 4.51949107 73.9810934 4.58608554 74.1138622 4.67054683 74.2309626 4.77287493 74.3480631 4.87520303 74.4420733 4.99783433 74.5129933 5.14076881 74.5839133 5.2837033 74.6193733 5.45587439 74.6193733 5.65728208 74.6193733 5.8976719 74.5748421 6.11938278 74.4857798 6.32241473 74.3967175 6.52544667 74.2664226 6.70086627 74.0948952 6.84867352 73.9233678 6.99648078 73.7114325 7.11180292 73.4590893 7.19463996 73.206746 7.27747699 72.9172935 7.31889551 72.5907317 7.31889551 72.4159057 7.31889551 72.2452029 7.30346508 72.0786234 7.27260422 71.9120439 7.24174337 71.7520616 7.1987006 71.5986765 7.14347591 71.4452914 7.08825122 71.3034515 7.023281 71.1731566 6.94856524 71.0428617 6.87384949 70.9282352 6.79263671 70.8292771 6.70492691L71.1113078 6.24688684C71.1475924 6.19166215 71.1904743 6.14943151 71.2399533 6.12019491 71.2894324 6.09095831 71.3521059 6.07634001 71.4279738 6.07634001 71.5038417 6.07634001 71.5755863 6.09745533 71.6432077 6.13968598 71.7108291 6.18191662 71.7891709 6.22739578 71.8782332 6.27612344 71.9672955 6.32485111 72.0720262 6.37033027 72.1924253 6.41256091 72.3128243 6.45479155 72.4653848 6.47590688 72.6501066 6.47590688 72.7952452 6.47590688 72.9197675 6.45885219 73.0236735 6.42474283 73.1275795 6.39063346 73.2133433 6.34596643 73.2809646 6.29074174 73.348586 6.23551705 73.3980651 6.17135896 73.4294018 6.09826746 73.4607386 6.02517596 73.4764069 5.94964808 73.4764069 5.87168381 73.4764069 5.75473741 73.4409469 5.65890633 73.370027 5.58419058 73.299107 5.50947482 73.2050967 5.4445046 73.0879963 5.38927991 72.9708959 5.33405522 72.8373024 5.28451543 72.6872159 5.24066053 72.5371294 5.19680563 72.3837443 5.14889009 72.2270606 5.09691391 72.0703769 5.04493774 71.9169918 4.98402815 71.7669053 4.91418517 71.6168189 4.84434218 71.4832254 4.75582025 71.3661249 4.64861938 71.2490245 4.54141852 71.1550143 4.40985382 71.0840943 4.25392528 71.0131743 4.09799675 70.9777143 3.90958311 70.9777143 3.68868435 70.9777143 3.48402815 71.0189469 3.28911749 71.101412 3.10395236 71.1838771 2.91878722 71.3051008 2.7571738 71.4650831 2.61911207 71.6250654 2.48105035 71.8246309 2.37060097 72.0637797 2.28776394 72.3029285 2.20492691 72.5791866 2.16350839 72.892554 2.16350839 73.242206 2.16350839 73.5605213 2.22035734 73.8474999 2.33405522 74.1344785 2.44775311 74.3736273 2.59718462 74.5649463 2.78234976L74.2878636 3.21602599ZM77.6969709 2.16350839C78.0169355 2.16350839 78.3113359 2.21386031 78.5801722 2.31456416 78.8490084 2.415268 79.0807353 2.56226313 79.275353 2.75554954 79.4699706 2.94883595 79.6217064 3.18597726 79.7305604 3.46697347 79.8394143 3.74796968 79.8938413 4.06876015 79.8938413 4.42934488 79.8938413 4.52030319 79.889718 4.59583108 79.8814715 4.65592853 79.873225 4.71602599 79.8583813 4.7631294 79.8369403 4.79723877 79.8154994 4.83134813 79.7866366 4.85571197 79.750352 4.87033027 79.7140673 4.88494857 79.6678869 4.89225772 79.6118106 4.89225772L76.4748381 4.89225772C76.5111227 5.40552247 76.6513134 5.78234976 76.8954101 6.02273958 77.1395068 6.2631294 77.46277 6.38332431 77.8651997 6.38332431 78.063116 6.38332431 78.2338187 6.36058473 78.377308 6.31510558 78.5207973 6.26962642 78.6461443 6.2192745 78.7533489 6.16404981 78.8605535 6.10882512 78.9545637 6.0584732 79.0353795 6.01299404 79.1161953 5.96751489 79.1945372 5.94477531 79.2704051 5.94477531 79.3198841 5.94477531 79.362766 5.95452084 79.3990506 5.97401191 79.4353353 5.99350298 79.466672 6.02111532 79.4930609 6.05684894L79.8493101 6.49539794C79.7140673 6.65132648 79.5623315 6.78207905 79.3941027 6.88765566 79.2258739 6.99323227 79.0502233 7.07769356 78.8671507 7.14103952 78.6840782 7.20438549 78.4977071 7.24905252 78.3080373 7.27504061 78.1183676 7.3010287 77.9344704 7.31402274 77.7563458 7.31402274 77.4033951 7.31402274 77.075184 7.25636167 76.7717125 7.14103952 76.4682409 7.02571738 76.2043525 6.85517055 75.9800475 6.62939903 75.7557424 6.4036275 75.5792671 6.12425555 75.4506215 5.79128316 75.3219759 5.45831077 75.2576532 5.07255008 75.2576532 4.63400108 75.2576532 4.29290742 75.3137294 3.97211695 75.425882 3.67162967 75.5380345 3.37114239 75.6988415 3.10963725 75.9083028 2.88711424 76.1177642 2.66459123 76.373406 2.4883595 76.6752283 2.35841906 76.9770506 2.22847861 77.3176314 2.16350839 77.6969709 2.16350839ZM77.7217104 3.02598809C77.3654612 3.02598809 77.0867292 3.12506768 76.8855143 3.32322685 76.6842994 3.52138603 76.5556539 3.80238224 76.4995776 4.16621548L78.7954061 4.16621548C78.7954061 4.01028695 78.7739652 3.86329182 78.7310833 3.7252301 78.6882015 3.58716838 78.6222294 3.46616134 78.5331671 3.36220899 78.4441048 3.25825663 78.3319522 3.17623173 78.1967094 3.11613427 78.0614667 3.05603682 77.9031337 3.02598809 77.7217104 3.02598809ZM80.8883704 7.24093124 80.8883704 2.24147266 81.6355042 2.24147266C81.7938372 2.24147266 81.8977433 2.31456416 81.9472223 2.46074716L82.0313367 2.85544126C82.1335935 2.7514889 82.2416228 2.65728208 82.3554246 2.57282079 82.4692264 2.4883595 82.5896255 2.415268 82.7166217 2.35354629 82.843618 2.29182458 82.9796854 2.24472117 83.124824 2.21223606 83.2699626 2.17975095 83.4282956 2.16350839 83.599823 2.16350839 83.8769057 2.16350839 84.1226518 2.20979968 84.337061 2.30238224 84.5514703 2.39496481 84.7304196 2.52490525 84.8739088 2.69220357 85.0173981 2.85950189 85.1262521 3.05928533 85.2004707 3.29155387 85.2746892 3.52382241 85.3117985 3.77964266 85.3117985 4.05901462L85.3117985 7.24093124 84.0896657 7.24093124 84.0896657 4.05901462C84.0896657 3.75365457 84.0179211 3.51732539 83.8744318 3.35002707 83.7309425 3.18272875 83.5157086 3.09907959 83.22873 3.09907959 83.0176194 3.09907959 82.8197031 3.146183 82.6349813 3.24038982 82.4502595 3.33459664 82.2754334 3.46291283 82.1105032 3.62533839L82.1105032 7.24093124 80.8883704 7.24093124ZM88.1815841 7.31889551C87.7428698 7.31889551 87.4047629 7.19626421 87.1672634 6.95100162 86.9297639 6.70573904 86.8110141 6.36708175 86.8110141 5.93502978L86.8110141 3.14293449 86.2964319 3.14293449C86.2304598 3.14293449 86.1735589 3.12181917 86.1257291 3.07958852 86.0778994 3.03735788 86.0539845 2.97401191 86.0539845 2.88955062L86.0539845 2.41201949 86.870389 2.28045479 87.1276801.91608013C87.1408745.851109908 87.1713866.800757986 87.2192164.765024364 87.2670461.729290742 87.3272457.711423931 87.399815.711423931L88.0331469.711423931 88.0331469 2.28532756 89.3690816 2.28532756 89.3690816 3.14293449 88.0331469 3.14293449 88.0331469 5.85219274C88.0331469 6.00812128 88.0727302 6.12994044 88.1518967 6.21765024 88.2310632 6.30536004 88.3366185 6.34921494 88.4685627 6.34921494 88.5444306 6.34921494 88.6079287 6.34028154 88.6590571 6.32241473 88.7101854 6.30454792 88.7547166 6.28586898 88.7926505 6.26637791 88.8305845 6.24688684 88.8643952 6.2282079 88.8940826 6.21034109 88.9237701 6.19247428 88.9534575 6.18354088 88.9831449 6.18354088 89.0194296 6.18354088 89.049117 6.19247428 89.0722072 6.21034109 89.0952975 6.2282079 89.120037 6.25500812 89.1464258 6.29074174L89.5125709 6.87547374C89.3344463 7.02165674 89.1299328 7.13210612 88.8990305 7.20682187 88.6681282 7.28153763 88.4289794 7.31889551 88.1815841 7.31889551ZM94.3219357 7.24093124 93.7727181 7.24093124C93.657267 7.24093124 93.5665554 7.22387656 93.5005833 7.18976719 93.4346112 7.15565782 93.3851321 7.08662696 93.3521461 6.98267461L93.2432922 6.62696264C93.1146466 6.74066053 92.988475 6.84055225 92.8647773 6.92663779 92.7410797 7.01272334 92.6132588 7.08500271 92.4813146 7.14347591 92.3493704 7.20194911 92.2091798 7.24580401 92.0607426 7.27504061 91.9123054 7.30427721 91.7473752 7.31889551 91.565952 7.31889551 91.3515427 7.31889551 91.1536265 7.29047103 90.9722032 7.23362209 90.79078 7.17677315 90.634921 7.09149973 90.5046261 6.97780184 90.3743312 6.86410395 90.2728992 6.72279372 90.2003299 6.55387114 90.1277606 6.38494857 90.0914759 6.18841364 90.0914759 5.96426638 90.0914759 5.77585273 90.1417796 5.58987547 90.2423871 5.4063346 90.3429945 5.22279372 90.5103986 5.05711965 90.7445995 4.9093124 90.9788004 4.76150514 91.2905185 4.63887385 91.6797538 4.54141852 92.0689891 4.44396318 92.5522346 4.38873849 93.1294903 4.37574445L93.1294903 4.08337845C93.1294903 3.74878181 93.0577457 3.50108284 92.9142564 3.34028154 92.7707671 3.17948024 92.5621304 3.09907959 92.2883463 3.09907959 92.09043 3.09907959 91.9254998 3.12181917 91.7935557 3.16729832 91.6616115 3.21277748 91.546985 3.26394153 91.4496762 3.32079047 91.3523674 3.37763942 91.2624804 3.42880347 91.1800153 3.47428262 91.0975502 3.51976178 91.0068386 3.54250135 90.9078804 3.54250135 90.8254153 3.54250135 90.7544954 3.52138603 90.6951205 3.47915539 90.6357456 3.43692474 90.5879158 3.38494857 90.5516312 3.32322685L90.3289754 2.93827829C90.9128284 2.41201949 91.6170803 2.14889009 92.4417314 2.14889009 92.7386057 2.14889009 93.0033187 2.19680563 93.2358703 2.29263671 93.4684219 2.38846779 93.6655135 2.52165674 93.8271451 2.69220357 93.9887767 2.86275041 94.1116497 3.06659448 94.1957641 3.30373579 94.2798785 3.5408771 94.3219357 3.80075799 94.3219357 4.08337845L94.3219357 7.24093124ZM91.9469407 6.49052518C92.0722877 6.49052518 92.1877388 6.47915539 92.2932942 6.45641581 92.3988495 6.43367623 92.4986323 6.39956687 92.5926425 6.35408771 92.6866527 6.30860855 92.7773643 6.25257174 92.8647773 6.18597726 92.9521904 6.11938278 93.040428 6.04060639 93.1294903 5.94964808L93.1294903 5.10665945C92.7732411 5.122902 92.4755421 5.15295073 92.2363933 5.19680563 91.9972445 5.24066053 91.8051008 5.29669735 91.6599622 5.36491608 91.5148236 5.43313481 91.4117422 5.51272334 91.350718 5.60368165 91.2896939 5.69463996 91.2591818 5.79371955 91.2591818 5.90092041 91.2591818 6.11207363 91.3226799 6.2631294 91.4496762 6.35408771 91.5766724 6.44504602 91.7424273 6.49052518 91.9469407 6.49052518ZM97.1917213 7.31889551C96.753007 7.31889551 96.4149 7.19626421 96.1774005 6.95100162 95.939901 6.70573904 95.8211513 6.36708175 95.8211513 5.93502978L95.8211513 3.14293449 95.306569 3.14293449C95.240597 3.14293449 95.183696 3.12181917 95.1358663 3.07958852 95.0880365 3.03735788 95.0641216 2.97401191 95.0641216 2.88955062L95.0641216 2.41201949 95.8805262 2.28045479 96.1378173.91608013C96.1510117.851109908 96.1815238.800757986 96.2293536.765024364 96.2771833.729290742 96.3373828.711423931 96.4099521.711423931L97.0432841.711423931 97.0432841 2.28532756 98.3792188 2.28532756 98.3792188 3.14293449 97.0432841 3.14293449 97.0432841 5.85219274C97.0432841 6.00812128 97.0828674 6.12994044 97.1620339 6.21765024 97.2412004 6.30536004 97.3467557 6.34921494 97.4786999 6.34921494 97.5545678 6.34921494 97.6180659 6.34028154 97.6691943 6.32241473 97.7203226 6.30454792 97.7648538 6.28586898 97.8027877 6.26637791 97.8407217 6.24688684 97.8745324 6.2282079 97.9042198 6.21034109 97.9339072 6.19247428 97.9635947 6.18354088 97.9932821 6.18354088 98.0295668 6.18354088 98.0592542 6.19247428 98.0823444 6.21034109 98.1054347 6.2282079 98.1301742 6.25500812 98.156563 6.29074174L98.5227081 6.87547374C98.3445835 7.02165674 98.14007 7.13210612 97.9091677 7.20682187 97.6782654 7.28153763 97.4391166 7.31889551 97.1917213 7.31889551ZM100.655256 2.24147266 100.655256 7.24093124 99.4331228 7.24093124 99.4331228 2.24147266 100.655256 2.24147266ZM100.838328.78451543C100.838328.888467786 100.816887.985923119 100.774005 1.07688143 100.731124 1.16783974 100.674223 1.24742826 100.603303 1.315647 100.532383 1.38386573 100.449093 1.43827829 100.353433 1.47888468 100.257774 1.51949107 100.155517 1.53979426 100.046663 1.53979426 99.9411078 1.53979426 99.8413251 1.51949107 99.7473149 1.47888468 99.6533046 1.43827829 99.5716642 1.38386573 99.5023935 1.315647 99.4331228 1.24742826 99.3778712 1.16783974 99.3366386 1.07688143 99.2954061.985923119 99.2747898.888467786 99.2747898.78451543 99.2747898.677314564 99.2954061.57661072 99.3366386.482403898 99.3778712.388197076 99.4331228.306984299 99.5023935.238765566 99.5716642.170546833 99.6533046.116134272 99.7473149.0755278831 99.8413251.0349214943 99.9411078.0146182999 100.046663.0146182999 100.155517.0146182999 100.257774.0349214943 100.353433.0755278831 100.449093.116134272 100.532383.170546833 100.603303.238765566 100.674223.306984299 100.731124.388197076 100.774005.482403898 100.816887.57661072 100.838328.677314564 100.838328.78451543ZM104.202904 2.16350839C104.582244 2.16350839 104.926123 2.22360585 105.234543 2.34380076 105.542962 2.46399567 105.806026 2.6345425 106.023734 2.85544126 106.241442 3.07634001 106.409671 3.34596643 106.52842 3.66432052 106.64717 3.98267461 106.706545 4.33838657 106.706545 4.73145642 106.706545 5.12777477 106.64717 5.48511099 106.52842 5.80346508 106.409671 6.12181917 106.241442 6.39306984 106.023734 6.61721711 105.806026 6.84136437 105.542962 7.01353546 105.234543 7.13373037 104.926123 7.25392528 104.582244 7.31402274 104.202904 7.31402274 103.823565 7.31402274 103.478861 7.25392528 103.168792 7.13373037 102.858723 7.01353546 102.59401 6.84136437 102.374653 6.61721711 102.155296 6.39306984 101.985418 6.12181917 101.865019 5.80346508 101.74462 5.48511099 101.68442 5.12777477 101.68442 4.73145642 101.68442 4.33838657 101.74462 3.98267461 101.865019 3.66432052 101.985418 3.34596643 102.155296 3.07634001 102.374653 2.85544126 102.59401 2.6345425 102.858723 2.46399567 103.168792 2.34380076 103.478861 2.22360585 103.823565 2.16350839 104.202904 2.16350839ZM104.202904 6.38819708C104.625126 6.38819708 104.937668 6.2485111 105.140533 5.96913914 105.343397 5.68976719 105.444829 5.28045479 105.444829 4.74120195 105.444829 4.20194911 105.343397 3.79101245 105.140533 3.50839199 104.937668 3.22577152 104.625126 3.08446129 104.202904 3.08446129 103.774086 3.08446129 103.45742 3.22658365 103.252906 3.51082837 103.048393 3.79507309 102.946136 4.20519762 102.946136 4.74120195 102.946136 5.27720628 103.048393 5.68570655 103.252906 5.96670276 103.45742 6.24769897 103.774086 6.38819708 104.202904 6.38819708ZM107.661491 7.24093124 107.661491 2.24147266 108.408625 2.24147266C108.566958 2.24147266 108.670864 2.31456416 108.720343 2.46074716L108.804457 2.85544126C108.906714 2.7514889 109.014743 2.65728208 109.128545 2.57282079 109.242347 2.4883595 109.362746 2.415268 109.489742 2.35354629 109.616738 2.29182458 109.752806 2.24472117 109.897944 2.21223606 110.043083 2.17975095 110.201416 2.16350839 110.372943 2.16350839 110.650026 2.16350839 110.895772 2.20979968 111.110181 2.30238224 111.324591 2.39496481 111.50354 2.52490525 111.647029 2.69220357 111.790519 2.85950189 111.899372 3.05928533 111.973591 3.29155387 112.04781 3.52382241 112.084919 3.77964266 112.084919 4.05901462L112.084919 7.24093124 110.862786 7.24093124 110.862786 4.05901462C110.862786 3.75365457 110.791041 3.51732539 110.647552 3.35002707 110.504063 3.18272875 110.288829 3.09907959 110.00185 3.09907959 109.79074 3.09907959 109.592824 3.146183 109.408102 3.24038982 109.22338 3.33459664 109.048554 3.46291283 108.883624 3.62533839L108.883624 7.24093124 107.661491 7.24093124ZM115.385172 2.16350839C115.705137 2.16350839 115.999537 2.21386031 116.268374 2.31456416 116.53721 2.415268 116.768937 2.56226313 116.963554 2.75554954 117.158172 2.94883595 117.309908 3.18597726 117.418762 3.46697347 117.527616 3.74796968 117.582043 4.06876015 117.582043 4.42934488 117.582043 4.52030319 117.577919 4.59583108 117.569673 4.65592853 117.561426 4.71602599 117.546583 4.7631294 117.525142 4.79723877 117.503701 4.83134813 117.474838 4.85571197 117.438553 4.87033027 117.402269 4.88494857 117.356088 4.89225772 117.300012 4.89225772L114.16304 4.89225772C114.199324 5.40552247 114.339515 5.78234976 114.583612 6.02273958 114.827708 6.2631294 115.150971 6.38332431 115.553401 6.38332431 115.751317 6.38332431 115.92202 6.36058473 116.065509 6.31510558 116.208999 6.26962642 116.334346 6.2192745 116.44155 6.16404981 116.548755 6.10882512 116.642765 6.0584732 116.723581 6.01299404 116.804397 5.96751489 116.882739 5.94477531 116.958607 5.94477531 117.008086 5.94477531 117.050967 5.95452084 117.087252 5.97401191 117.123537 5.99350298 117.154873 6.02111532 117.181262 6.05684894L117.537512 6.49539794C117.402269 6.65132648 117.250533 6.78207905 117.082304 6.88765566 116.914075 6.99323227 116.738425 7.07769356 116.555352 7.14103952 116.37228 7.20438549 116.185909 7.24905252 115.996239 7.27504061 115.806569 7.3010287 115.622672 7.31402274 115.444547 7.31402274 115.091597 7.31402274 114.763385 7.25636167 114.459914 7.14103952 114.156442 7.02571738 113.892554 6.85517055 113.668249 6.62939903 113.443944 6.4036275 113.267469 6.12425555 113.138823 5.79128316 113.010177 5.45831077 112.945855 5.07255008 112.945855 4.63400108 112.945855 4.29290742 113.001931 3.97211695 113.114083 3.67162967 113.226236 3.37114239 113.387043 3.10963725 113.596504 2.88711424 113.805966 2.66459123 114.061607 2.4883595 114.36343 2.35841906 114.665252 2.22847861 115.005833 2.16350839 115.385172 2.16350839ZM115.409912 3.02598809C115.053663 3.02598809 114.774931 3.12506768 114.573716 3.32322685 114.372501 3.52138603 114.243855 3.80238224 114.187779 4.16621548L116.483608 4.16621548C116.483608 4.01028695 116.462167 3.86329182 116.419285 3.7252301 116.376403 3.58716838 116.310431 3.46616134 116.221369 3.36220899 116.132306 3.25825663 116.020154 3.17623173 115.884911 3.11613427 115.749668 3.05603682 115.591335 3.02598809 115.409912 3.02598809ZM118.576572 7.24093124 118.576572 2.24147266 119.323706 2.24147266C119.482039 2.24147266 119.585945 2.31456416 119.635424 2.46074716L119.719538 2.85544126C119.821795 2.7514889 119.929824 2.65728208 120.043626 2.57282079 120.157428 2.4883595 120.277827 2.415268 120.404823 2.35354629 120.531819 2.29182458 120.667887 2.24472117 120.813025 2.21223606 120.958164 2.17975095 121.116497 2.16350839 121.288024 2.16350839 121.565107 2.16350839 121.810853 2.20979968 122.025262 2.30238224 122.239672 2.39496481 122.418621 2.52490525 122.56211 2.69220357 122.7056 2.85950189 122.814454 3.05928533 122.888672 3.29155387 122.962891 3.52382241 123 3.77964266 123 4.05901462L123 7.24093124 121.777867 7.24093124 121.777867 4.05901462C121.777867 3.75365457 121.706123 3.51732539 121.562633 3.35002707 121.419144 3.18272875 121.20391 3.09907959 120.916931 3.09907959 120.705821 3.09907959 120.507905 3.146183 120.323183 3.24038982 120.138461 3.33459664 119.963635 3.46291283 119.798705 3.62533839L119.798705 7.24093124 118.576572 7.24093124Z"/></g><path fill="#FDFDFD" d="M14.3673729,5.37961783 C15.4444915,4.75286624 16.617161,4.4656051 17.8072034,4.28280255 C25.6076271,3.04670913 33.017161,7.37303609 35.875,14.8853503 C36.7262712,17.1312102 37.0389831,19.4641189 36.8044492,21.840552 C36.092161,29.1700637 30.7152542,35.1764331 23.5402542,36.5518047 C15.0101695,38.1883227 6.74936441,32.9740977 4.57775424,24.5303609 C3.66567797,21.0048832 3.92627119,17.5403397 5.30741525,14.162845 C5.37690678,13.9887473 5.45508475,13.8320594 5.65487288,13.7537155 C8.7559322,12.4305732 11.9438559,11.4904459 15.3576271,11.5861996 C18.0851695,11.6558386 20.6129237,12.3870488 22.7411017,14.1802548 C24.2177966,15.4250531 25.1993644,16.9832272 25.4860169,18.9244161 C25.842161,21.3008493 24.9561441,23.181104 23.1493644,24.6783439 C22.2372881,25.4269639 21.1949153,25.8796178 20.0396186,26.1407643 C17.4336864,26.7239915 14.8277542,25.122293 13.8114407,23.1462845 C12.5432203,20.6740977 14.2631356,17.6273885 16.9472458,17.6622081 C18.0764831,17.6796178 19.1709746,18.4978769 19.4576271,19.533758 C19.7529661,20.5957537 19.257839,21.7447983 18.2502119,22.3541401 C18.1894068,22.3889597 18.1199153,22.4237792 18.0591102,22.4673036 C17.9548729,22.5369427 17.7985169,22.5978769 17.8332627,22.7545648 C17.859322,22.885138 17.9896186,22.9547771 18.1199153,22.9983015 C18.5716102,23.1462845 19.0146186,23.1201699 19.4315678,22.9112527 C20.6476695,22.3019108 21.4294492,21.3704883 21.5423729,19.9602972 C21.7508475,17.3488323 20.0483051,15.2596603 17.4423729,14.6503185 C14.6279661,13.9887473 11.2055085,15.6861996 9.88516949,18.7938429 C8.49533898,22.066879 9.2684322,25.0178344 11.4574153,27.6292994 C14.7235169,31.5203822 20.1872881,32.4692144 24.817161,30.0144374 C27.8226695,28.4127389 29.9942797,26.0363057 30.8976695,22.7110403 C31.9661017,18.7590234 31.0713983,15.129087 28.6131356,11.9082803 C26.5283898,9.16624204 23.6966102,7.47749469 20.5,6.35456476 C18.9103814,5.79745223 17.2860169,5.44055202 15.6008475,5.37961783 C15.1925847,5.36220807 14.784322,5.37961783 14.3673729,5.37961783 Z" transform="translate(0 5)"/></g></svg>